<svg width="65" height="65" viewBox="0 0 65 65" fill="none" xmlns="http://www.w3.org/2000/svg">
<path d="M37.447 63.76C36.537 63.86 35.707 63.96 34.867 64.02C34.767 64.02 34.617 63.8 34.557 63.66C33.737 61.8 32.847 59.97 31.717 58.27C27.357 51.71 21.617 46.79 14.317 43.78C10.567 42.24 6.65698 41.41 2.58698 41.46C2.29698 41.46 2.17697 41.37 2.09697 41.1C1.88697 40.37 1.64697 39.65 1.39697 38.89C2.39697 38.89 3.34697 38.85 4.29697 38.89C7.21697 39.02 10.067 39.53 12.847 40.42C18.527 42.24 23.517 45.26 27.817 49.38C29.167 50.68 30.367 52.14 31.637 53.53C31.797 53.7 31.937 53.89 32.087 54.08C40.237 44.24 50.507 38.84 63.507 38.75C63.207 39.64 62.967 40.43 62.677 41.21C62.647 41.3 62.417 41.36 62.267 41.37C60.597 41.52 58.917 41.57 57.267 41.83C51.757 42.71 46.787 44.9 42.257 48.13C39.127 50.36 36.417 53.04 34.007 56.03C33.797 56.29 33.747 56.49 33.937 56.8C34.507 57.73 35.047 58.68 35.627 59.67C42.037 51.07 50.387 45.93 61.087 44.87C61.127 44.9 61.177 44.94 61.217 44.97C60.717 45.82 60.237 46.68 59.717 47.53C59.657 47.63 59.467 47.69 59.327 47.71C50.377 49.13 43.407 53.73 38.047 60.93C37.727 61.36 37.447 61.83 37.137 62.27C36.957 62.51 36.937 62.73 37.097 62.99C37.217 63.2 37.297 63.43 37.447 63.75V63.76Z" fill="white"/>
<path d="M32.1672 45C41.1572 36.42 51.7672 32.18 64.3072 32.81C64.2372 33.64 64.1772 34.43 64.1072 35.29C51.4072 34.96 40.8272 39.6 32.1772 48.88C31.2972 47.99 30.4872 47.1 29.6072 46.29C23.6072 40.78 16.6272 37.23 8.5672 35.87C5.9772 35.44 3.3772 35.29 0.757203 35.42C0.487203 35.43 0.387199 35.36 0.347199 35.1C0.247199 34.47 0.127205 33.85 0.0172049 33.22C-0.0427951 32.91 0.0472022 32.77 0.397202 32.76C3.5472 32.65 6.6772 32.77 9.7872 33.34C15.7472 34.44 21.2372 36.69 26.2472 40.1C28.2672 41.47 30.1772 42.98 31.8972 44.72C31.9772 44.8 32.0572 44.87 32.1972 45H32.1672Z" fill="white"/>
<path d="M33.517 41.4H30.847C30.847 40.93 30.847 40.49 30.847 40.06C30.857 38.79 30.847 37.51 30.897 36.24C30.907 35.84 30.767 35.75 30.387 35.7C26.837 35.24 23.727 33.89 21.427 31.03C20.497 29.86 19.897 28.51 19.417 27.02C24.767 26.98 28.247 29.79 30.817 34.15C30.747 29.17 30.677 24.22 32.087 19.26C32.227 19.83 32.357 20.29 32.447 20.77C33.037 24.07 33.347 27.41 33.427 30.76C33.517 34.19 33.497 37.62 33.527 41.06C33.527 41.17 33.517 41.28 33.507 41.42L33.517 41.4Z" fill="white"/>
<path d="M3.68701 45.04C5.26701 45.06 6.71701 45.25 8.15701 45.57C12.967 46.67 17.307 48.74 21.167 51.82C25.237 55.06 28.417 59.02 30.727 63.68C30.787 63.8 30.837 63.93 30.937 64.13C30.197 64.06 29.527 63.95 28.857 63.94C28.117 63.93 27.717 63.59 27.327 62.95C23.397 56.45 17.987 51.68 10.807 49.03C9.09701 48.4 7.32701 48.02 5.51701 47.86C5.22701 47.84 5.07701 47.71 4.94701 47.47C4.54701 46.68 4.13701 45.9 3.68701 45.03V45.04Z" fill="white"/>
<path d="M6.82719 29.96C5.99719 29.96 5.1972 29.97 4.4072 29.96C4.0872 29.96 4.1572 29.67 4.1972 29.48C4.3372 28.66 4.47719 27.84 4.66719 27.03C5.87719 21.71 8.21719 16.98 12.0372 13.04C15.1172 9.86004 18.7272 7.48004 22.9472 6.07004C23.3272 5.94004 23.7072 5.80004 24.0772 5.67004C24.0972 5.67004 24.1272 5.67004 24.1772 5.67004C24.2772 6.52004 24.3672 7.38004 24.4772 8.28004C14.2372 11.95 8.5272 19.37 6.8372 29.96H6.82719Z" fill="white"/>
<path d="M39.7871 8.24007C39.8971 7.36007 40.0071 6.48007 40.1271 5.57007C44.9171 7.17007 49.1571 9.68006 52.6471 13.4101C57.3071 18.4001 59.7871 24.4601 60.3471 29.6301C59.5171 29.7901 58.6871 29.9401 57.9071 30.0901C56.0071 19.3301 49.9571 12.0501 39.7971 8.24007H39.7871Z" fill="white"/>
<path d="M44.5674 26.86C44.0874 31.74 38.1974 36.53 33.7974 35.57C34.3774 33.68 35.2974 31.98 36.6174 30.54C38.7274 28.23 41.5074 27.29 44.5674 26.86Z" fill="white"/>
<path d="M43.9874 18.0701C43.4674 20.6701 42.3974 22.8601 40.5274 24.6301C38.6174 26.4301 36.2674 27.0201 33.6274 27.1501C34.1274 25.1701 34.9474 23.4201 36.2074 21.9101C38.1974 19.5301 40.8774 18.4701 43.9974 18.0701H43.9874Z" fill="white"/>
<path d="M30.4871 27.2C28.1171 26.82 26.0071 26.02 24.1571 24.62C22.0171 22.99 20.9371 20.71 20.2671 18.1C22.5471 18.17 24.5771 18.87 26.3971 20.16C28.7871 21.85 29.9271 24.29 30.4871 27.2Z" fill="white"/>
<path d="M32.027 13.27C30.707 11.27 29.597 9.29001 29.607 6.90001C29.607 4.35001 30.597 2.13 32.107 0C33.567 1.86 34.387 3.9 34.567 6.16C34.777 8.83 33.677 11.11 32.027 13.27Z" fill="white"/>
<path d="M42.5572 10.14C42.2072 12.44 41.1971 14.3 39.6071 15.86C37.7571 17.68 35.4571 18.32 32.8271 18.43C33.3271 16.52 34.1671 14.87 35.4371 13.48C37.3071 11.42 39.7571 10.49 42.5671 10.14H42.5572Z" fill="white"/>
<path d="M31.3873 18.38C26.8673 18.68 22.0873 14.6 21.6973 10.11C23.6973 10.26 25.4973 10.94 27.1473 12.04C29.4173 13.56 30.5673 15.84 31.3973 18.38H31.3873Z" fill="white"/>
<path d="M40.9771 62.77C45.1071 57.53 50.2471 53.72 56.8171 51.84C52.5071 56.98 47.2871 60.66 40.9771 62.77Z" fill="white"/>
<path d="M22.8973 62.75C17.0173 60.45 11.8373 57.17 8.02734 51.97C14.3473 53.65 19.1073 57.52 23.0373 62.54C22.9873 62.61 22.9373 62.67 22.8873 62.74L22.8973 62.75Z" fill="white"/>
</svg>
