<svg width="258" height="65" viewBox="0 0 258 65" fill="none" xmlns="http://www.w3.org/2000/svg">
<path d="M95.5774 31.5601C94.6174 31.9601 93.6574 32.16 92.6874 32.16C91.1474 32.16 89.7674 31.89 88.5474 31.36C87.3174 30.83 86.2874 30.09 85.4474 29.16C84.6074 28.22 83.9574 27.12 83.5074 25.86C83.0574 24.6 82.8374 23.2301 82.8374 21.7701C82.8374 20.3101 83.0574 18.8801 83.5074 17.6001C83.9574 16.3201 84.6074 15.2001 85.4474 14.2401C86.2874 13.2801 87.3274 12.5401 88.5474 11.9901C89.7774 11.4501 91.1574 11.1801 92.6874 11.1801C93.7174 11.1801 94.7174 11.3301 95.6774 11.6401C96.6374 11.9501 97.5074 12.4 98.2874 13C99.0674 13.6 99.7074 14.34 100.207 15.22C100.707 16.1 101.017 17.11 101.137 18.25H96.9274C96.6674 17.13 96.1574 16.28 95.4074 15.72C94.6574 15.16 93.7474 14.8801 92.6874 14.8801C91.6974 14.8801 90.8574 15.0701 90.1574 15.4601C89.4674 15.8401 88.9074 16.36 88.4774 17C88.0474 17.64 87.7374 18.3801 87.5374 19.2001C87.3374 20.0201 87.2474 20.8801 87.2474 21.7601C87.2474 22.6401 87.3474 23.42 87.5374 24.22C87.7374 25.02 88.0474 25.7301 88.4774 26.3701C88.9074 27.0101 89.4674 27.5201 90.1574 27.9001C90.8474 28.2801 91.6874 28.4801 92.6874 28.4801C94.1474 28.4801 95.2774 28.1101 96.0674 27.3701C96.8674 26.6301 97.3274 25.56 97.4574 24.16H93.0174V20.8701H101.437V31.7101H98.6274L98.1774 29.44C97.3874 30.45 96.5174 31.1601 95.5674 31.5601H95.5774Z" fill="white"/>
<path d="M115.828 11.67C116.728 11.67 117.538 11.82 118.258 12.11C118.978 12.4 119.598 12.8 120.108 13.3C120.618 13.81 121.018 14.39 121.288 15.05C121.558 15.71 121.698 16.43 121.698 17.2C121.698 18.38 121.448 19.4 120.958 20.26C120.458 21.12 119.648 21.78 118.528 22.23V22.29C119.068 22.44 119.518 22.67 119.878 22.98C120.238 23.29 120.528 23.65 120.748 24.07C120.968 24.49 121.138 24.95 121.238 25.46C121.338 25.97 121.408 26.47 121.448 26.98C121.468 27.3 121.488 27.67 121.508 28.1C121.528 28.53 121.558 28.97 121.608 29.42C121.658 29.87 121.728 30.3 121.828 30.7C121.928 31.1 122.088 31.44 122.288 31.72H117.878C117.638 31.08 117.488 30.33 117.428 29.45C117.368 28.57 117.288 27.73 117.178 26.92C117.028 25.87 116.708 25.1 116.228 24.62C115.738 24.13 114.948 23.89 113.838 23.89H109.428V31.72H105.018V11.67H115.828ZM114.248 20.74C115.258 20.74 116.018 20.52 116.518 20.07C117.018 19.62 117.278 18.89 117.278 17.88C117.278 16.87 117.028 16.2 116.518 15.76C116.008 15.32 115.258 15.1 114.248 15.1H109.418V20.74H114.248Z" fill="white"/>
<path d="M140.278 11.67V15.38H129.698V19.68H139.408V23.11H129.698V28.02H140.508V31.73H125.288V11.68H140.278V11.67Z" fill="white"/>
<path d="M158.477 11.67V15.38H147.897V19.68H157.607V23.11H147.897V28.02H158.707V31.73H143.487V11.68H158.477V11.67Z" fill="white"/>
<path d="M166.057 11.67L174.427 25.12H174.487V11.67H178.617V31.72H174.207L165.867 18.3H165.807V31.72H161.677V11.67H166.057Z" fill="white"/>
<path d="M182.287 17.6101C182.737 16.3301 183.387 15.2101 184.227 14.2501C185.067 13.2901 186.107 12.5501 187.327 12.0001C188.557 11.4601 189.937 11.1901 191.467 11.1901C192.997 11.1901 194.407 11.4601 195.627 12.0001C196.847 12.5401 197.877 13.2901 198.717 14.2501C199.557 15.2101 200.207 16.3201 200.657 17.6101C201.107 18.9001 201.327 20.2801 201.327 21.7801C201.327 23.2801 201.107 24.6001 200.657 25.8701C200.207 27.1301 199.567 28.2301 198.717 29.1701C197.877 30.1101 196.847 30.8401 195.627 31.3701C194.407 31.9001 193.027 32.1701 191.467 32.1701C189.907 32.1701 188.547 31.9001 187.327 31.3701C186.097 30.8401 185.067 30.1001 184.227 29.1701C183.387 28.2301 182.737 27.1301 182.287 25.8701C181.837 24.6101 181.617 23.2401 181.617 21.7801C181.617 20.3201 181.837 18.8901 182.287 17.6101ZM186.307 24.2301C186.507 25.0301 186.817 25.7401 187.247 26.3801C187.677 27.0201 188.237 27.5301 188.927 27.9101C189.617 28.2901 190.457 28.4901 191.457 28.4901C192.457 28.4901 193.287 28.3001 193.987 27.9101C194.677 27.5301 195.237 27.0201 195.667 26.3801C196.097 25.7401 196.407 25.0301 196.607 24.2301C196.807 23.4301 196.897 22.6201 196.897 21.7701C196.897 20.9201 196.797 20.0401 196.607 19.2101C196.407 18.3901 196.097 17.6501 195.667 17.0101C195.237 16.3701 194.677 15.8501 193.987 15.4701C193.297 15.0901 192.447 14.8901 191.457 14.8901C190.467 14.8901 189.627 15.0801 188.927 15.4701C188.237 15.8501 187.677 16.3701 187.247 17.0101C186.817 17.6501 186.507 18.3901 186.307 19.2101C186.107 20.0301 186.017 20.8901 186.017 21.7701C186.017 22.6501 186.117 23.4301 186.307 24.2301Z" fill="white"/>
<path d="M208.678 31.72L202.188 11.67H206.708L211.168 25.76H211.228L215.748 11.67H220.298L213.648 31.72H208.678Z" fill="white"/>
<path d="M237.008 11.67V15.38H226.428V19.68H236.138V23.11H226.428V28.02H237.238V31.73H222.018V11.68H237.008V11.67Z" fill="white"/>
<path d="M238.667 11.67H243.777L247.707 18.07L251.777 11.67H256.607L250.177 21.24L257.167 31.71H251.917L247.537 24.78L243.077 31.71H238.137L245.127 21.21L238.667 11.66V11.67Z" fill="white"/>
<path d="M92.1474 42.9301C92.1174 42.3501 91.9974 41.8401 91.7774 41.4101C91.5574 40.9801 91.2574 40.6201 90.8774 40.3301C90.4974 40.0401 90.0474 39.8201 89.5174 39.6701C88.9874 39.5201 88.4174 39.4501 87.7974 39.4501C87.4174 39.4501 87.0074 39.4901 86.5674 39.5801C86.1274 39.6701 85.7274 39.8201 85.3474 40.0501C84.9674 40.2801 84.6674 40.5701 84.4274 40.9401C84.1874 41.3101 84.0674 41.7801 84.0674 42.3401C84.0674 42.9001 84.1974 43.3301 84.4674 43.6701C84.7374 44.0101 85.0774 44.2901 85.5174 44.5001C85.9474 44.7101 86.4374 44.8801 86.9974 45.0001C87.5574 45.1201 88.1174 45.2501 88.6874 45.3601C89.2674 45.4701 89.8374 45.6101 90.3874 45.7701C90.9374 45.9301 91.4274 46.1401 91.8674 46.4201C92.3074 46.6901 92.6574 47.0501 92.9174 47.4801C93.1774 47.9101 93.3174 48.4701 93.3174 49.1201C93.3174 49.8301 93.1674 50.4201 92.8574 50.9101C92.5574 51.3901 92.1674 51.7801 91.7074 52.0901C91.2474 52.3901 90.7274 52.6101 90.1674 52.7401C89.6074 52.8701 89.0574 52.9401 88.5374 52.9401C87.7374 52.9401 86.9874 52.8501 86.2974 52.6801C85.5974 52.5101 84.9974 52.2301 84.4774 51.8401C83.9574 51.4501 83.5474 50.9601 83.2474 50.3501C82.9474 49.7401 82.8074 49.0001 82.8174 48.1301H83.6574C83.6174 48.8801 83.7274 49.5101 83.9774 50.0201C84.2274 50.5301 84.5874 50.9501 85.0274 51.2801C85.4774 51.6101 86.0074 51.8501 86.6174 51.9901C87.2274 52.1301 87.8674 52.2101 88.5374 52.2101C88.9474 52.2101 89.3774 52.1601 89.8374 52.0601C90.2974 51.9601 90.7274 51.7901 91.1074 51.5501C91.4974 51.3101 91.8174 50.9901 92.0774 50.6001C92.3374 50.2101 92.4674 49.7101 92.4674 49.1201C92.4674 48.5301 92.3374 48.0801 92.0674 47.7201C91.7974 47.3601 91.4474 47.0701 91.0174 46.8501C90.5774 46.6301 90.0874 46.4501 89.5374 46.3201C88.9874 46.1901 88.4174 46.0601 87.8374 45.9501C87.2674 45.8401 86.7074 45.7001 86.1474 45.5501C85.5874 45.4001 85.0974 45.1901 84.6674 44.9301C84.2374 44.6701 83.8874 44.3401 83.6174 43.9201C83.3474 43.5001 83.2174 42.9801 83.2174 42.3301C83.2174 41.6801 83.3574 41.1301 83.6274 40.6701C83.8974 40.2101 84.2574 39.8301 84.6874 39.5501C85.1274 39.2701 85.6174 39.0601 86.1574 38.9201C86.6974 38.7901 87.2374 38.7201 87.7774 38.7201C88.4874 38.7201 89.1474 38.8001 89.7674 38.9601C90.3874 39.1201 90.9174 39.3701 91.3874 39.7001C91.8474 40.0401 92.2174 40.4701 92.4974 41.0001C92.7774 41.5301 92.9374 42.1701 92.9774 42.9201H92.1374L92.1474 42.9301Z" fill="white"/>
<path d="M117.057 45.8401C117.057 46.8301 116.907 47.7601 116.617 48.6201C116.327 49.4801 115.907 50.2401 115.357 50.8801C114.807 51.5201 114.127 52.0201 113.337 52.3901C112.547 52.7601 111.637 52.9401 110.617 52.9401C109.597 52.9401 108.697 52.7601 107.887 52.3901C107.077 52.0201 106.407 51.5201 105.857 50.8801C105.307 50.2401 104.887 49.4901 104.597 48.6201C104.307 47.7501 104.157 46.8201 104.157 45.8401C104.157 44.8601 104.307 43.9201 104.597 43.0601C104.887 42.2001 105.307 41.4401 105.857 40.8001C106.407 40.1601 107.087 39.6601 107.887 39.2901C108.687 38.9201 109.597 38.7401 110.617 38.7401C111.637 38.7401 112.537 38.9201 113.337 39.2901C114.137 39.6601 114.807 40.1601 115.357 40.8001C115.907 41.4401 116.327 42.1901 116.617 43.0601C116.907 43.9301 117.057 44.8601 117.057 45.8401ZM104.997 45.8401C104.997 46.7101 105.127 47.5401 105.377 48.3101C105.627 49.0801 105.997 49.7601 106.477 50.3301C106.957 50.9101 107.547 51.3701 108.247 51.7101C108.947 52.0501 109.737 52.2201 110.627 52.2201C111.517 52.2201 112.307 52.0501 112.997 51.7101C113.687 51.3701 114.277 50.9101 114.757 50.3301C115.237 49.7501 115.607 49.0801 115.857 48.3101C116.107 47.5401 116.237 46.7101 116.237 45.8401C116.237 44.9701 116.107 44.1401 115.857 43.3701C115.607 42.6001 115.237 41.9201 114.757 41.3501C114.277 40.7701 113.687 40.3101 112.997 39.9701C112.307 39.6301 111.517 39.4601 110.627 39.4601C109.737 39.4601 108.947 39.6301 108.247 39.9701C107.547 40.3101 106.957 40.7701 106.477 41.3501C105.997 41.9301 105.627 42.6001 105.377 43.3701C105.127 44.1401 104.997 44.9701 104.997 45.8401Z" fill="white"/>
<path d="M128.347 39.0601H129.187V51.91H136.887V52.6301H128.357V39.0601H128.347Z" fill="white"/>
<path d="M147.618 39.0601V47.19C147.618 47.46 147.628 47.7701 147.658 48.1201C147.688 48.4701 147.748 48.8401 147.848 49.2101C147.948 49.5801 148.088 49.9501 148.278 50.3101C148.458 50.6701 148.708 50.9901 149.028 51.2801C149.348 51.5601 149.738 51.7901 150.198 51.9601C150.658 52.1301 151.218 52.22 151.878 52.22C152.718 52.22 153.418 52.1001 153.978 51.8701C154.538 51.6401 154.998 51.3 155.348 50.86C155.698 50.42 155.948 49.8901 156.098 49.2701C156.248 48.6501 156.328 47.9501 156.328 47.1801V39.05H157.168V47.1801C157.168 47.9901 157.078 48.74 156.908 49.44C156.738 50.14 156.448 50.7501 156.048 51.2601C155.638 51.7801 155.098 52.1901 154.418 52.4901C153.738 52.7901 152.898 52.94 151.878 52.94C151.078 52.94 150.398 52.8401 149.828 52.6401C149.258 52.4401 148.788 52.1801 148.408 51.8501C148.038 51.5301 147.738 51.1601 147.528 50.7401C147.308 50.3201 147.148 49.9001 147.038 49.4801C146.928 49.0601 146.858 48.6401 146.828 48.2401C146.798 47.8401 146.788 47.49 146.788 47.19V39.0601H147.628H147.618Z" fill="white"/>
<path d="M167.597 39.7801V39.0601H177.997V39.7801H173.207V52.6301H172.367V39.7801H167.597Z" fill="white"/>
<path d="M188.427 39.0601H189.267V52.6301H188.427V39.0601Z" fill="white"/>
<path d="M213.458 45.8401C213.458 46.8301 213.308 47.7601 213.018 48.6201C212.728 49.4801 212.308 50.2401 211.758 50.8801C211.208 51.5201 210.528 52.0201 209.738 52.3901C208.948 52.7601 208.038 52.9401 207.018 52.9401C205.998 52.9401 205.098 52.7601 204.288 52.3901C203.478 52.0201 202.808 51.5201 202.258 50.8801C201.708 50.2401 201.288 49.4901 200.998 48.6201C200.708 47.7501 200.558 46.8201 200.558 45.8401C200.558 44.8601 200.708 43.9201 200.998 43.0601C201.288 42.2001 201.708 41.4401 202.258 40.8001C202.808 40.1601 203.488 39.6601 204.288 39.2901C205.088 38.9201 205.998 38.7401 207.018 38.7401C208.038 38.7401 208.938 38.9201 209.738 39.2901C210.538 39.6601 211.208 40.1601 211.758 40.8001C212.308 41.4401 212.728 42.1901 213.018 43.0601C213.308 43.9301 213.458 44.8601 213.458 45.8401ZM201.388 45.8401C201.388 46.7101 201.518 47.5401 201.768 48.3101C202.018 49.0801 202.388 49.7601 202.868 50.3301C203.348 50.9101 203.938 51.3701 204.638 51.7101C205.338 52.0501 206.128 52.2201 207.018 52.2201C207.908 52.2201 208.698 52.0501 209.388 51.7101C210.078 51.3701 210.668 50.9101 211.148 50.3301C211.628 49.7501 211.998 49.0801 212.248 48.3101C212.498 47.5401 212.628 46.7101 212.628 45.8401C212.628 44.9701 212.498 44.1401 212.248 43.3701C211.998 42.6001 211.628 41.9201 211.148 41.3501C210.668 40.7701 210.078 40.3101 209.388 39.9701C208.698 39.6301 207.908 39.4601 207.018 39.4601C206.128 39.4601 205.338 39.6301 204.638 39.9701C203.938 40.3101 203.348 40.7701 202.868 41.3501C202.388 41.9301 202.018 42.6001 201.768 43.3701C201.518 44.1401 201.388 44.9701 201.388 45.8401Z" fill="white"/>
<path d="M224.748 39.0601H225.798L234.368 51.5101H234.408V39.0601H235.248V52.6301H234.258L225.628 40.0901H225.588V52.6301H224.748V39.0601Z" fill="white"/>
<path d="M255.987 42.9301C255.957 42.3501 255.837 41.8401 255.617 41.4101C255.397 40.9801 255.097 40.6201 254.717 40.3301C254.337 40.0401 253.887 39.8201 253.357 39.6701C252.827 39.5201 252.257 39.4501 251.637 39.4501C251.257 39.4501 250.847 39.4901 250.407 39.5801C249.967 39.6701 249.567 39.8201 249.187 40.0501C248.807 40.2801 248.507 40.5701 248.267 40.9401C248.027 41.3101 247.907 41.7801 247.907 42.3401C247.907 42.9001 248.037 43.3301 248.307 43.6701C248.577 44.0101 248.917 44.2901 249.357 44.5001C249.787 44.7101 250.277 44.8801 250.837 45.0001C251.397 45.1201 251.957 45.2501 252.527 45.3601C253.107 45.4701 253.677 45.6101 254.227 45.7701C254.777 45.9301 255.267 46.1401 255.707 46.4201C256.147 46.6901 256.497 47.0501 256.757 47.4801C257.017 47.9101 257.157 48.4701 257.157 49.1201C257.157 49.8301 257.007 50.4201 256.697 50.9101C256.397 51.3901 256.007 51.7801 255.547 52.0901C255.087 52.3901 254.567 52.6101 254.007 52.7401C253.447 52.8701 252.897 52.9401 252.377 52.9401C251.577 52.9401 250.827 52.8501 250.137 52.6801C249.437 52.5101 248.837 52.2301 248.317 51.8401C247.797 51.4501 247.387 50.9601 247.087 50.3501C246.787 49.7401 246.647 49.0001 246.657 48.1301H247.497C247.457 48.8801 247.567 49.5101 247.817 50.0201C248.067 50.5301 248.427 50.9501 248.867 51.2801C249.317 51.6101 249.847 51.8501 250.457 51.9901C251.067 52.1301 251.707 52.2101 252.377 52.2101C252.787 52.2101 253.217 52.1601 253.677 52.0601C254.137 51.9601 254.567 51.7901 254.947 51.5501C255.337 51.3101 255.657 50.9901 255.917 50.6001C256.177 50.2101 256.307 49.7101 256.307 49.1201C256.307 48.5301 256.177 48.0801 255.907 47.7201C255.637 47.3601 255.287 47.0701 254.857 46.8501C254.417 46.6301 253.927 46.4501 253.377 46.3201C252.827 46.1901 252.257 46.0601 251.677 45.9501C251.107 45.8401 250.547 45.7001 249.987 45.5501C249.427 45.4001 248.937 45.1901 248.507 44.9301C248.077 44.6701 247.727 44.3401 247.457 43.9201C247.187 43.5001 247.057 42.9801 247.057 42.3301C247.057 41.6801 247.197 41.1301 247.467 40.6701C247.737 40.2101 248.097 39.8301 248.527 39.5501C248.967 39.2701 249.457 39.0601 249.997 38.9201C250.537 38.7901 251.077 38.7201 251.617 38.7201C252.327 38.7201 252.987 38.8001 253.607 38.9601C254.227 39.1201 254.757 39.3701 255.227 39.7001C255.687 40.0401 256.057 40.4701 256.337 41.0001C256.617 41.5301 256.777 42.1701 256.817 42.9201H255.977L255.987 42.9301Z" fill="white"/>
<path d="M37.447 63.76C36.537 63.86 35.707 63.96 34.867 64.02C34.767 64.02 34.617 63.8 34.557 63.66C33.737 61.8 32.847 59.97 31.717 58.27C27.357 51.71 21.617 46.79 14.317 43.78C10.567 42.24 6.65698 41.41 2.58698 41.46C2.29698 41.46 2.17697 41.37 2.09697 41.1C1.88697 40.37 1.64697 39.65 1.39697 38.89C2.39697 38.89 3.34697 38.85 4.29697 38.89C7.21697 39.02 10.067 39.53 12.847 40.42C18.527 42.24 23.517 45.26 27.817 49.38C29.167 50.68 30.367 52.14 31.637 53.53C31.797 53.7 31.937 53.89 32.087 54.08C40.237 44.24 50.507 38.84 63.507 38.75C63.207 39.64 62.967 40.43 62.677 41.21C62.647 41.3 62.417 41.36 62.267 41.37C60.597 41.52 58.917 41.57 57.267 41.83C51.757 42.71 46.787 44.9 42.257 48.13C39.127 50.36 36.417 53.04 34.007 56.03C33.797 56.29 33.747 56.49 33.937 56.8C34.507 57.73 35.047 58.68 35.627 59.67C42.037 51.07 50.387 45.93 61.087 44.87C61.127 44.9 61.177 44.94 61.217 44.97C60.717 45.82 60.237 46.68 59.717 47.53C59.657 47.63 59.467 47.69 59.327 47.71C50.377 49.13 43.407 53.73 38.047 60.93C37.727 61.36 37.447 61.83 37.137 62.27C36.957 62.51 36.937 62.73 37.097 62.99C37.217 63.2 37.297 63.43 37.447 63.75V63.76Z" fill="white"/>
<path d="M32.1672 45C41.1572 36.42 51.7672 32.18 64.3072 32.81C64.2372 33.64 64.1772 34.43 64.1072 35.29C51.4072 34.96 40.8272 39.6 32.1772 48.88C31.2972 47.99 30.4872 47.1 29.6072 46.29C23.6072 40.78 16.6272 37.23 8.5672 35.87C5.9772 35.44 3.3772 35.29 0.757203 35.42C0.487203 35.43 0.387199 35.36 0.347199 35.1C0.247199 34.47 0.127205 33.85 0.0172049 33.22C-0.0427951 32.91 0.0472022 32.77 0.397202 32.76C3.5472 32.65 6.6772 32.77 9.7872 33.34C15.7472 34.44 21.2372 36.69 26.2472 40.1C28.2672 41.47 30.1772 42.98 31.8972 44.72C31.9772 44.8 32.0572 44.87 32.1972 45H32.1672Z" fill="white"/>
<path d="M33.517 41.4H30.847C30.847 40.93 30.847 40.49 30.847 40.06C30.857 38.79 30.847 37.51 30.897 36.24C30.907 35.84 30.767 35.75 30.387 35.7C26.837 35.24 23.727 33.89 21.427 31.03C20.497 29.86 19.897 28.51 19.417 27.02C24.767 26.98 28.247 29.79 30.817 34.15C30.747 29.17 30.677 24.22 32.087 19.26C32.227 19.83 32.357 20.29 32.447 20.77C33.037 24.07 33.347 27.41 33.427 30.76C33.517 34.19 33.497 37.62 33.527 41.06C33.527 41.17 33.517 41.28 33.507 41.42L33.517 41.4Z" fill="white"/>
<path d="M3.68701 45.04C5.26701 45.06 6.71701 45.25 8.15701 45.57C12.967 46.67 17.307 48.74 21.167 51.82C25.237 55.06 28.417 59.02 30.727 63.68C30.787 63.8 30.837 63.93 30.937 64.13C30.197 64.06 29.527 63.95 28.857 63.94C28.117 63.93 27.717 63.59 27.327 62.95C23.397 56.45 17.987 51.68 10.807 49.03C9.09701 48.4 7.32701 48.02 5.51701 47.86C5.22701 47.84 5.07701 47.71 4.94701 47.47C4.54701 46.68 4.13701 45.9 3.68701 45.03V45.04Z" fill="white"/>
<path d="M6.82719 29.96C5.99719 29.96 5.1972 29.97 4.4072 29.96C4.0872 29.96 4.1572 29.67 4.1972 29.48C4.3372 28.66 4.47719 27.84 4.66719 27.03C5.87719 21.71 8.21719 16.98 12.0372 13.04C15.1172 9.86004 18.7272 7.48004 22.9472 6.07004C23.3272 5.94004 23.7072 5.80004 24.0772 5.67004C24.0972 5.67004 24.1272 5.67004 24.1772 5.67004C24.2772 6.52004 24.3672 7.38004 24.4772 8.28004C14.2372 11.95 8.5272 19.37 6.8372 29.96H6.82719Z" fill="white"/>
<path d="M39.7871 8.24007C39.8971 7.36007 40.0071 6.48007 40.1271 5.57007C44.9171 7.17007 49.1571 9.68006 52.6471 13.4101C57.3071 18.4001 59.7871 24.4601 60.3471 29.6301C59.5171 29.7901 58.6871 29.9401 57.9071 30.0901C56.0071 19.3301 49.9571 12.0501 39.7971 8.24007H39.7871Z" fill="white"/>
<path d="M44.5674 26.86C44.0874 31.74 38.1974 36.53 33.7974 35.57C34.3774 33.68 35.2974 31.98 36.6174 30.54C38.7274 28.23 41.5074 27.29 44.5674 26.86Z" fill="white"/>
<path d="M43.9874 18.0701C43.4674 20.6701 42.3974 22.8601 40.5274 24.6301C38.6174 26.4301 36.2674 27.0201 33.6274 27.1501C34.1274 25.1701 34.9474 23.4201 36.2074 21.9101C38.1974 19.5301 40.8774 18.4701 43.9974 18.0701H43.9874Z" fill="white"/>
<path d="M30.4871 27.2C28.1171 26.82 26.0071 26.02 24.1571 24.62C22.0171 22.99 20.9371 20.71 20.2671 18.1C22.5471 18.17 24.5771 18.87 26.3971 20.16C28.7871 21.85 29.9271 24.29 30.4871 27.2Z" fill="white"/>
<path d="M32.027 13.27C30.707 11.27 29.597 9.29001 29.607 6.90001C29.607 4.35001 30.597 2.13 32.107 0C33.567 1.86 34.387 3.9 34.567 6.16C34.777 8.83 33.677 11.11 32.027 13.27Z" fill="white"/>
<path d="M42.5572 10.14C42.2072 12.44 41.1971 14.3 39.6071 15.86C37.7571 17.68 35.4571 18.32 32.8271 18.43C33.3271 16.52 34.1671 14.87 35.4371 13.48C37.3071 11.42 39.7571 10.49 42.5671 10.14H42.5572Z" fill="white"/>
<path d="M31.3873 18.38C26.8673 18.68 22.0873 14.6 21.6973 10.11C23.6973 10.26 25.4973 10.94 27.1473 12.04C29.4173 13.56 30.5673 15.84 31.3973 18.38H31.3873Z" fill="white"/>
<path d="M40.9771 62.77C45.1071 57.53 50.2471 53.72 56.8171 51.84C52.5071 56.98 47.2871 60.66 40.9771 62.77Z" fill="white"/>
<path d="M22.8973 62.75C17.0173 60.45 11.8373 57.17 8.02734 51.97C14.3473 53.65 19.1073 57.52 23.0373 62.54C22.9873 62.61 22.9373 62.67 22.8873 62.74L22.8973 62.75Z" fill="white"/>
</svg>
