<svg width="258" height="65" viewBox="0 0 258 65" fill="none" xmlns="http://www.w3.org/2000/svg">
<path d="M95.5769 31.56C94.6169 31.96 93.6569 32.16 92.6869 32.16C91.1469 32.16 89.7669 31.89 88.5469 31.36C87.3169 30.83 86.2869 30.09 85.4469 29.16C84.6069 28.22 83.9569 27.12 83.5069 25.86C83.0569 24.6 82.8369 23.23 82.8369 21.77C82.8369 20.31 83.0569 18.88 83.5069 17.6C83.9569 16.32 84.6069 15.2 85.4469 14.24C86.2869 13.28 87.3269 12.54 88.5469 11.99C89.7769 11.45 91.1569 11.18 92.6869 11.18C93.7169 11.18 94.7169 11.33 95.6769 11.64C96.6369 11.95 97.5069 12.4 98.2869 13C99.0669 13.6 99.7069 14.34 100.207 15.22C100.707 16.1 101.017 17.11 101.137 18.25H96.9269C96.6669 17.13 96.1569 16.28 95.4069 15.72C94.6569 15.16 93.7469 14.88 92.6869 14.88C91.6969 14.88 90.8569 15.07 90.1569 15.46C89.4669 15.84 88.9069 16.36 88.4769 17C88.0469 17.64 87.7369 18.38 87.5369 19.2C87.3369 20.02 87.2469 20.88 87.2469 21.76C87.2469 22.64 87.3469 23.42 87.5369 24.22C87.7369 25.02 88.0469 25.73 88.4769 26.37C88.9069 27.01 89.4669 27.52 90.1569 27.9C90.8469 28.28 91.6869 28.48 92.6869 28.48C94.1469 28.48 95.2769 28.11 96.0669 27.37C96.8669 26.63 97.3269 25.56 97.4569 24.16H93.0169V20.87H101.437V31.71H98.6269L98.1769 29.44C97.3869 30.45 96.5169 31.16 95.5669 31.56H95.5769Z" fill="#30BD32"/>
<path d="M115.827 11.67C116.727 11.67 117.537 11.82 118.257 12.11C118.977 12.4 119.597 12.8 120.107 13.3C120.617 13.81 121.017 14.39 121.287 15.05C121.557 15.71 121.697 16.43 121.697 17.2C121.697 18.38 121.447 19.4 120.957 20.26C120.457 21.12 119.647 21.78 118.527 22.23V22.29C119.067 22.44 119.517 22.67 119.877 22.98C120.237 23.29 120.527 23.65 120.747 24.07C120.967 24.49 121.137 24.95 121.237 25.46C121.337 25.97 121.407 26.47 121.447 26.98C121.467 27.3 121.487 27.67 121.507 28.1C121.527 28.53 121.557 28.97 121.607 29.42C121.657 29.87 121.727 30.3 121.827 30.7C121.927 31.1 122.087 31.44 122.287 31.72H117.877C117.637 31.08 117.487 30.33 117.427 29.45C117.367 28.57 117.287 27.73 117.177 26.92C117.027 25.87 116.707 25.1 116.227 24.62C115.737 24.13 114.947 23.89 113.837 23.89H109.427V31.72H105.017V11.67H115.827ZM114.247 20.74C115.257 20.74 116.017 20.52 116.517 20.07C117.017 19.62 117.277 18.89 117.277 17.88C117.277 16.87 117.027 16.2 116.517 15.76C116.007 15.32 115.257 15.1 114.247 15.1H109.417V20.74H114.247Z" fill="#30BD32"/>
<path d="M140.277 11.67V15.38H129.697V19.68H139.407V23.11H129.697V28.02H140.507V31.73H125.287V11.68H140.277V11.67Z" fill="#30BD32"/>
<path d="M158.477 11.67V15.38H147.897V19.68H157.607V23.11H147.897V28.02H158.707V31.73H143.487V11.68H158.477V11.67Z" fill="#30BD32"/>
<path d="M166.057 11.67L174.427 25.12H174.487V11.67H178.617V31.72H174.207L165.867 18.3H165.807V31.72H161.677V11.67H166.057Z" fill="#30BD32"/>
<path d="M182.287 17.61C182.737 16.33 183.387 15.21 184.227 14.25C185.067 13.29 186.107 12.55 187.327 12C188.557 11.46 189.937 11.19 191.467 11.19C192.997 11.19 194.407 11.46 195.627 12C196.847 12.54 197.877 13.29 198.717 14.25C199.557 15.21 200.207 16.32 200.657 17.61C201.107 18.9 201.327 20.28 201.327 21.78C201.327 23.28 201.107 24.6 200.657 25.87C200.207 27.13 199.567 28.23 198.717 29.17C197.877 30.11 196.847 30.84 195.627 31.37C194.407 31.9 193.027 32.17 191.467 32.17C189.907 32.17 188.547 31.9 187.327 31.37C186.097 30.84 185.067 30.1 184.227 29.17C183.387 28.23 182.737 27.13 182.287 25.87C181.837 24.61 181.617 23.24 181.617 21.78C181.617 20.32 181.837 18.89 182.287 17.61ZM186.307 24.23C186.507 25.03 186.817 25.74 187.247 26.38C187.677 27.02 188.237 27.53 188.927 27.91C189.617 28.29 190.457 28.49 191.457 28.49C192.457 28.49 193.287 28.3 193.987 27.91C194.677 27.53 195.237 27.02 195.667 26.38C196.097 25.74 196.407 25.03 196.607 24.23C196.807 23.43 196.897 22.62 196.897 21.77C196.897 20.92 196.797 20.04 196.607 19.21C196.407 18.39 196.097 17.65 195.667 17.01C195.237 16.37 194.677 15.85 193.987 15.47C193.297 15.09 192.447 14.89 191.457 14.89C190.467 14.89 189.627 15.08 188.927 15.47C188.237 15.85 187.677 16.37 187.247 17.01C186.817 17.65 186.507 18.39 186.307 19.21C186.107 20.03 186.017 20.89 186.017 21.77C186.017 22.65 186.117 23.43 186.307 24.23Z" fill="#30BD32"/>
<path d="M208.677 31.72L202.187 11.67H206.707L211.167 25.76H211.227L215.747 11.67H220.297L213.647 31.72H208.677Z" fill="#30BD32"/>
<path d="M237.007 11.67V15.38H226.427V19.68H236.137V23.11H226.427V28.02H237.237V31.73H222.017V11.68H237.007V11.67Z" fill="#30BD32"/>
<path d="M238.667 11.67H243.777L247.707 18.07L251.777 11.67H256.607L250.177 21.24L257.167 31.71H251.917L247.537 24.78L243.077 31.71H238.137L245.127 21.21L238.667 11.66V11.67Z" fill="#30BD32"/>
<path d="M92.1469 42.93C92.1169 42.35 91.9969 41.84 91.7769 41.41C91.5569 40.98 91.2569 40.62 90.8769 40.33C90.4969 40.04 90.0469 39.82 89.5169 39.67C88.9869 39.52 88.4169 39.45 87.7969 39.45C87.4169 39.45 87.0069 39.49 86.5669 39.58C86.1269 39.67 85.7269 39.82 85.3469 40.05C84.9669 40.28 84.6669 40.57 84.4269 40.94C84.1869 41.31 84.0669 41.78 84.0669 42.34C84.0669 42.9 84.1969 43.33 84.4669 43.67C84.7369 44.01 85.0769 44.29 85.5169 44.5C85.9469 44.71 86.4369 44.88 86.9969 45C87.5569 45.12 88.1169 45.25 88.6869 45.36C89.2669 45.47 89.8369 45.61 90.3869 45.77C90.9369 45.93 91.4269 46.14 91.8669 46.42C92.3069 46.69 92.6569 47.05 92.9169 47.48C93.1769 47.91 93.3169 48.47 93.3169 49.12C93.3169 49.83 93.1669 50.42 92.8569 50.91C92.5569 51.39 92.1669 51.78 91.7069 52.09C91.2469 52.39 90.7269 52.61 90.1669 52.74C89.6069 52.87 89.0569 52.94 88.5369 52.94C87.7369 52.94 86.9869 52.85 86.2969 52.68C85.5969 52.51 84.9969 52.23 84.4769 51.84C83.9569 51.45 83.5469 50.96 83.2469 50.35C82.9469 49.74 82.8069 49 82.8169 48.13H83.6569C83.6169 48.88 83.7269 49.51 83.9769 50.02C84.2269 50.53 84.5869 50.95 85.0269 51.28C85.4769 51.61 86.0069 51.85 86.6169 51.99C87.2269 52.13 87.8669 52.21 88.5369 52.21C88.9469 52.21 89.3769 52.16 89.8369 52.06C90.2969 51.96 90.7269 51.79 91.1069 51.55C91.4969 51.31 91.8169 50.99 92.0769 50.6C92.3369 50.21 92.4669 49.71 92.4669 49.12C92.4669 48.53 92.3369 48.08 92.0669 47.72C91.7969 47.36 91.4469 47.07 91.0169 46.85C90.5769 46.63 90.0869 46.45 89.5369 46.32C88.9869 46.19 88.4169 46.06 87.8369 45.95C87.2669 45.84 86.7069 45.7 86.1469 45.55C85.5869 45.4 85.0969 45.19 84.6669 44.93C84.2369 44.67 83.8869 44.34 83.6169 43.92C83.3469 43.5 83.2169 42.98 83.2169 42.33C83.2169 41.68 83.3569 41.13 83.6269 40.67C83.8969 40.21 84.2569 39.83 84.6869 39.55C85.1269 39.27 85.6169 39.06 86.1569 38.92C86.6969 38.79 87.2369 38.72 87.7769 38.72C88.4869 38.72 89.1469 38.8 89.7669 38.96C90.3869 39.12 90.9169 39.37 91.3869 39.7C91.8469 40.04 92.2169 40.47 92.4969 41C92.7769 41.53 92.9369 42.17 92.9769 42.92H92.1369L92.1469 42.93Z" fill="#30BD32"/>
<path d="M117.057 45.84C117.057 46.83 116.907 47.76 116.617 48.62C116.327 49.48 115.907 50.24 115.357 50.88C114.807 51.52 114.127 52.02 113.337 52.39C112.547 52.76 111.637 52.94 110.617 52.94C109.597 52.94 108.697 52.76 107.887 52.39C107.077 52.02 106.407 51.52 105.857 50.88C105.307 50.24 104.887 49.49 104.597 48.62C104.307 47.75 104.157 46.82 104.157 45.84C104.157 44.86 104.307 43.92 104.597 43.06C104.887 42.2 105.307 41.44 105.857 40.8C106.407 40.16 107.087 39.66 107.887 39.29C108.687 38.92 109.597 38.74 110.617 38.74C111.637 38.74 112.537 38.92 113.337 39.29C114.137 39.66 114.807 40.16 115.357 40.8C115.907 41.44 116.327 42.19 116.617 43.06C116.907 43.93 117.057 44.86 117.057 45.84ZM104.997 45.84C104.997 46.71 105.127 47.54 105.377 48.31C105.627 49.08 105.997 49.76 106.477 50.33C106.957 50.91 107.547 51.37 108.247 51.71C108.947 52.05 109.737 52.22 110.627 52.22C111.517 52.22 112.307 52.05 112.997 51.71C113.687 51.37 114.277 50.91 114.757 50.33C115.237 49.75 115.607 49.08 115.857 48.31C116.107 47.54 116.237 46.71 116.237 45.84C116.237 44.97 116.107 44.14 115.857 43.37C115.607 42.6 115.237 41.92 114.757 41.35C114.277 40.77 113.687 40.31 112.997 39.97C112.307 39.63 111.517 39.46 110.627 39.46C109.737 39.46 108.947 39.63 108.247 39.97C107.547 40.31 106.957 40.77 106.477 41.35C105.997 41.93 105.627 42.6 105.377 43.37C105.127 44.14 104.997 44.97 104.997 45.84Z" fill="#30BD32"/>
<path d="M128.347 39.06H129.187V51.91H136.887V52.63H128.357V39.06H128.347Z" fill="#30BD32"/>
<path d="M147.617 39.06V47.19C147.617 47.46 147.627 47.77 147.657 48.12C147.687 48.47 147.747 48.84 147.847 49.21C147.947 49.58 148.087 49.95 148.277 50.31C148.457 50.67 148.707 50.99 149.027 51.28C149.347 51.56 149.737 51.79 150.197 51.96C150.657 52.13 151.217 52.22 151.877 52.22C152.717 52.22 153.417 52.1 153.977 51.87C154.537 51.64 154.997 51.3 155.347 50.86C155.697 50.42 155.947 49.89 156.097 49.27C156.247 48.65 156.327 47.95 156.327 47.18V39.05H157.167V47.18C157.167 47.99 157.077 48.74 156.907 49.44C156.737 50.14 156.447 50.75 156.047 51.26C155.637 51.78 155.097 52.19 154.417 52.49C153.737 52.79 152.897 52.94 151.877 52.94C151.077 52.94 150.397 52.84 149.827 52.64C149.257 52.44 148.787 52.18 148.407 51.85C148.037 51.53 147.737 51.16 147.527 50.74C147.307 50.32 147.147 49.9 147.037 49.48C146.927 49.06 146.857 48.64 146.827 48.24C146.797 47.84 146.787 47.49 146.787 47.19V39.06H147.627H147.617Z" fill="#30BD32"/>
<path d="M167.597 39.78V39.06H177.997V39.78H173.207V52.63H172.367V39.78H167.597Z" fill="#30BD32"/>
<path d="M188.427 39.06H189.267V52.63H188.427V39.06Z" fill="#30BD32"/>
<path d="M213.457 45.84C213.457 46.83 213.307 47.76 213.017 48.62C212.727 49.48 212.307 50.24 211.757 50.88C211.207 51.52 210.527 52.02 209.737 52.39C208.947 52.76 208.037 52.94 207.017 52.94C205.997 52.94 205.097 52.76 204.287 52.39C203.477 52.02 202.807 51.52 202.257 50.88C201.707 50.24 201.287 49.49 200.997 48.62C200.707 47.75 200.557 46.82 200.557 45.84C200.557 44.86 200.707 43.92 200.997 43.06C201.287 42.2 201.707 41.44 202.257 40.8C202.807 40.16 203.487 39.66 204.287 39.29C205.087 38.92 205.997 38.74 207.017 38.74C208.037 38.74 208.937 38.92 209.737 39.29C210.537 39.66 211.207 40.16 211.757 40.8C212.307 41.44 212.727 42.19 213.017 43.06C213.307 43.93 213.457 44.86 213.457 45.84ZM201.387 45.84C201.387 46.71 201.517 47.54 201.767 48.31C202.017 49.08 202.387 49.76 202.867 50.33C203.347 50.91 203.937 51.37 204.637 51.71C205.337 52.05 206.127 52.22 207.017 52.22C207.907 52.22 208.697 52.05 209.387 51.71C210.077 51.37 210.667 50.91 211.147 50.33C211.627 49.75 211.997 49.08 212.247 48.31C212.497 47.54 212.627 46.71 212.627 45.84C212.627 44.97 212.497 44.14 212.247 43.37C211.997 42.6 211.627 41.92 211.147 41.35C210.667 40.77 210.077 40.31 209.387 39.97C208.697 39.63 207.907 39.46 207.017 39.46C206.127 39.46 205.337 39.63 204.637 39.97C203.937 40.31 203.347 40.77 202.867 41.35C202.387 41.93 202.017 42.6 201.767 43.37C201.517 44.14 201.387 44.97 201.387 45.84Z" fill="#30BD32"/>
<path d="M224.747 39.06H225.797L234.367 51.51H234.407V39.06H235.247V52.63H234.257L225.627 40.09H225.587V52.63H224.747V39.06Z" fill="#30BD32"/>
<path d="M255.987 42.93C255.957 42.35 255.837 41.84 255.617 41.41C255.397 40.98 255.097 40.62 254.717 40.33C254.337 40.04 253.887 39.82 253.357 39.67C252.827 39.52 252.257 39.45 251.637 39.45C251.257 39.45 250.847 39.49 250.407 39.58C249.967 39.67 249.567 39.82 249.187 40.05C248.807 40.28 248.507 40.57 248.267 40.94C248.027 41.31 247.907 41.78 247.907 42.34C247.907 42.9 248.037 43.33 248.307 43.67C248.577 44.01 248.917 44.29 249.357 44.5C249.787 44.71 250.277 44.88 250.837 45C251.397 45.12 251.957 45.25 252.527 45.36C253.107 45.47 253.677 45.61 254.227 45.77C254.777 45.93 255.267 46.14 255.707 46.42C256.147 46.69 256.497 47.05 256.757 47.48C257.017 47.91 257.157 48.47 257.157 49.12C257.157 49.83 257.007 50.42 256.697 50.91C256.397 51.39 256.007 51.78 255.547 52.09C255.087 52.39 254.567 52.61 254.007 52.74C253.447 52.87 252.897 52.94 252.377 52.94C251.577 52.94 250.827 52.85 250.137 52.68C249.437 52.51 248.837 52.23 248.317 51.84C247.797 51.45 247.387 50.96 247.087 50.35C246.787 49.74 246.647 49 246.657 48.13H247.497C247.457 48.88 247.567 49.51 247.817 50.02C248.067 50.53 248.427 50.95 248.867 51.28C249.317 51.61 249.847 51.85 250.457 51.99C251.067 52.13 251.707 52.21 252.377 52.21C252.787 52.21 253.217 52.16 253.677 52.06C254.137 51.96 254.567 51.79 254.947 51.55C255.337 51.31 255.657 50.99 255.917 50.6C256.177 50.21 256.307 49.71 256.307 49.12C256.307 48.53 256.177 48.08 255.907 47.72C255.637 47.36 255.287 47.07 254.857 46.85C254.417 46.63 253.927 46.45 253.377 46.32C252.827 46.19 252.257 46.06 251.677 45.95C251.107 45.84 250.547 45.7 249.987 45.55C249.427 45.4 248.937 45.19 248.507 44.93C248.077 44.67 247.727 44.34 247.457 43.92C247.187 43.5 247.057 42.98 247.057 42.33C247.057 41.68 247.197 41.13 247.467 40.67C247.737 40.21 248.097 39.83 248.527 39.55C248.967 39.27 249.457 39.06 249.997 38.92C250.537 38.79 251.077 38.72 251.617 38.72C252.327 38.72 252.987 38.8 253.607 38.96C254.227 39.12 254.757 39.37 255.227 39.7C255.687 40.04 256.057 40.47 256.337 41C256.617 41.53 256.777 42.17 256.817 42.92H255.977L255.987 42.93Z" fill="#30BD32"/>
<path d="M37.4475 63.76C36.5375 63.86 35.7075 63.96 34.8675 64.02C34.7675 64.02 34.6175 63.8 34.5575 63.66C33.7375 61.8 32.8475 59.97 31.7175 58.27C27.3575 51.71 21.6175 46.79 14.3175 43.78C10.5675 42.24 6.65746 41.41 2.58746 41.46C2.29746 41.46 2.17746 41.37 2.09746 41.1C1.88746 40.37 1.64746 39.65 1.39746 38.89C2.39746 38.89 3.34746 38.85 4.29746 38.89C7.21746 39.02 10.0675 39.53 12.8475 40.42C18.5275 42.24 23.5175 45.26 27.8175 49.38C29.1675 50.68 30.3675 52.14 31.6375 53.53C31.7975 53.7 31.9375 53.89 32.0875 54.08C40.2375 44.24 50.5075 38.84 63.5075 38.75C63.2075 39.64 62.9675 40.43 62.6775 41.21C62.6475 41.3 62.4175 41.36 62.2675 41.37C60.5975 41.52 58.9175 41.57 57.2675 41.83C51.7575 42.71 46.7875 44.9 42.2575 48.13C39.1275 50.36 36.4175 53.04 34.0075 56.03C33.7975 56.29 33.7475 56.49 33.9375 56.8C34.5075 57.73 35.0475 58.68 35.6275 59.67C42.0375 51.07 50.3875 45.93 61.0875 44.87C61.1275 44.9 61.1775 44.94 61.2175 44.97C60.7175 45.82 60.2375 46.68 59.7175 47.53C59.6575 47.63 59.4675 47.69 59.3275 47.71C50.3775 49.13 43.4075 53.73 38.0475 60.93C37.7275 61.36 37.4475 61.83 37.1375 62.27C36.9575 62.51 36.9375 62.73 37.0975 62.99C37.2175 63.2 37.2975 63.43 37.4475 63.75V63.76Z" fill="#30BD32"/>
<path d="M32.1672 45C41.1572 36.42 51.7672 32.18 64.3072 32.81C64.2372 33.64 64.1772 34.43 64.1072 35.29C51.4072 34.96 40.8272 39.6 32.1772 48.88C31.2972 47.99 30.4872 47.1 29.6072 46.29C23.6072 40.78 16.6272 37.23 8.5672 35.87C5.9772 35.44 3.3772 35.29 0.757203 35.42C0.487203 35.43 0.387199 35.36 0.347199 35.1C0.247199 34.47 0.127205 33.85 0.0172049 33.22C-0.0427951 32.91 0.0472022 32.77 0.397202 32.76C3.5472 32.65 6.6772 32.77 9.7872 33.34C15.7472 34.44 21.2372 36.69 26.2472 40.1C28.2672 41.47 30.1772 42.98 31.8972 44.72C31.9772 44.8 32.0572 44.87 32.1972 45H32.1672Z" fill="#30BD32"/>
<path d="M33.517 41.4H30.847C30.847 40.93 30.847 40.49 30.847 40.06C30.857 38.79 30.847 37.51 30.897 36.24C30.907 35.84 30.767 35.75 30.387 35.7C26.837 35.24 23.727 33.89 21.427 31.03C20.497 29.86 19.897 28.51 19.417 27.02C24.767 26.98 28.247 29.79 30.817 34.15C30.747 29.17 30.677 24.22 32.087 19.26C32.227 19.83 32.357 20.29 32.447 20.77C33.037 24.07 33.347 27.41 33.427 30.76C33.517 34.19 33.497 37.62 33.527 41.06C33.527 41.17 33.517 41.28 33.507 41.42L33.517 41.4Z" fill="#30BD32"/>
<path d="M3.6875 45.04C5.2675 45.06 6.7175 45.25 8.1575 45.57C12.9675 46.67 17.3075 48.74 21.1675 51.82C25.2375 55.06 28.4175 59.02 30.7275 63.68C30.7875 63.8 30.8375 63.93 30.9375 64.13C30.1975 64.06 29.5275 63.95 28.8575 63.94C28.1175 63.93 27.7175 63.59 27.3275 62.95C23.3975 56.45 17.9875 51.68 10.8075 49.03C9.0975 48.4 7.3275 48.02 5.5175 47.86C5.2275 47.84 5.0775 47.71 4.9475 47.47C4.5475 46.68 4.1375 45.9 3.6875 45.03V45.04Z" fill="#30BD32"/>
<path d="M6.82768 29.96C5.99768 29.96 5.19769 29.97 4.40769 29.96C4.08769 29.96 4.15769 29.67 4.19769 29.48C4.33769 28.66 4.47768 27.84 4.66768 27.03C5.87768 21.71 8.21768 16.98 12.0377 13.04C15.1177 9.86004 18.7277 7.48004 22.9477 6.07004C23.3277 5.94004 23.7077 5.80004 24.0777 5.67004C24.0977 5.67004 24.1277 5.67004 24.1777 5.67004C24.2777 6.52004 24.3677 7.38004 24.4777 8.28004C14.2377 11.95 8.52769 19.37 6.83769 29.96H6.82768Z" fill="#30BD32"/>
<path d="M39.7871 8.24001C39.8971 7.36001 40.0071 6.48001 40.1271 5.57001C44.9171 7.17001 49.1571 9.68 52.6471 13.41C57.3071 18.4 59.7871 24.46 60.3471 29.63C59.5171 29.79 58.6871 29.94 57.9071 30.09C56.0071 19.33 49.9571 12.05 39.7971 8.24001H39.7871Z" fill="#30BD32"/>
<path d="M44.5669 26.86C44.0869 31.74 38.1969 36.53 33.7969 35.57C34.3769 33.68 35.2969 31.98 36.6169 30.54C38.7269 28.23 41.5069 27.29 44.5669 26.86Z" fill="#30BD32"/>
<path d="M43.987 18.07C43.467 20.67 42.3969 22.86 40.5269 24.63C38.6169 26.43 36.267 27.02 33.627 27.15C34.127 25.17 34.9469 23.42 36.2069 21.91C38.1969 19.53 40.8769 18.47 43.9969 18.07H43.987Z" fill="#30BD32"/>
<path d="M30.4876 27.2C28.1176 26.82 26.0076 26.02 24.1576 24.62C22.0176 22.99 20.9376 20.71 20.2676 18.1C22.5476 18.17 24.5776 18.87 26.3976 20.16C28.7876 21.85 29.9276 24.29 30.4876 27.2Z" fill="#30BD32"/>
<path d="M32.0275 13.27C30.7075 11.27 29.5975 9.29001 29.6075 6.90001C29.6075 4.35001 30.5975 2.13 32.1075 0C33.5675 1.86 34.3875 3.9 34.5675 6.16C34.7775 8.83 33.6775 11.11 32.0275 13.27Z" fill="#30BD32"/>
<path d="M42.5572 10.14C42.2072 12.44 41.1971 14.3 39.6071 15.86C37.7571 17.68 35.4571 18.32 32.8271 18.43C33.3271 16.52 34.1671 14.87 35.4371 13.48C37.3071 11.42 39.7571 10.49 42.5671 10.14H42.5572Z" fill="#30BD32"/>
<path d="M31.3873 18.38C26.8673 18.68 22.0873 14.6 21.6973 10.11C23.6973 10.26 25.4973 10.94 27.1473 12.04C29.4173 13.56 30.5673 15.84 31.3973 18.38H31.3873Z" fill="#30BD32"/>
<path d="M40.9775 62.77C45.1075 57.53 50.2475 53.72 56.8175 51.84C52.5075 56.98 47.2875 60.66 40.9775 62.77Z" fill="#30BD32"/>
<path d="M22.8973 62.75C17.0173 60.45 11.8373 57.17 8.02734 51.97C14.3473 53.65 19.1073 57.52 23.0373 62.54C22.9873 62.61 22.9373 62.67 22.8873 62.74L22.8973 62.75Z" fill="#30BD32"/>
</svg>
